<svg width="4313" height="821" xmlns="http://www.w3.org/2000/svg" xmlns:xlink="http://www.w3.org/1999/xlink" overflow="hidden"><defs><clipPath id="clip0"><rect x="166" y="962" width="4313" height="821"/></clipPath><clipPath id="clip1"><rect x="764" y="986" width="820" height="620"/></clipPath><clipPath id="clip2"><rect x="764" y="986" width="820" height="620"/></clipPath><clipPath id="clip3"><rect x="764" y="986" width="820" height="620"/></clipPath><clipPath id="clip4"><rect x="764" y="986" width="820" height="620"/></clipPath><clipPath id="clip5"><rect x="166" y="986" width="599" height="620"/></clipPath><clipPath id="clip6"><rect x="166" y="986" width="599" height="620"/></clipPath><clipPath id="clip7"><rect x="166" y="986" width="599" height="620"/></clipPath></defs><g clip-path="url(#clip0)" transform="translate(-166 -962)"><g clip-path="url(#clip1)"><g clip-path="url(#clip2)"><g clip-path="url(#clip3)"><g clip-path="url(#clip4)"><path d="M284.143 469.499C119.397 485.999 0 534.602 0 591.847 0 653.134 136.388 704.431 318.915 717.227 318.915 717.227 616.337 720.595 284.143 469.499M386.425 463.342C379.558 460.294 401.624 463.116 409.279 463.116 634.892 463.116 817.836 520.936 817.836 592.42 817.836 642.56 727.547 686.037 595.601 707.493 595.601 707.381 832.134 660.967 386.425 463.342Z" fill="#004098" fill-rule="evenodd" transform="matrix(1 0 0 1.00035 765.082 887.44)"/><path d="M351.682 273.748C366.991 271.277 409.546 269.367 425.644 269.367 606.103 269.367 725.884 316.444 725.884 373.296 725.884 428.463 587.865 473.517 414.385 475.989 414.385 475.989 41.1958 324.084 351.682 273.748Z" fill="#ED6C00" fill-rule="evenodd" transform="matrix(1 0 0 1.00035 765.082 887.44)"/><path d="M410 100.607C410 100.607-182.646 354.002 284.123 469.499 284.123 469.499-34.4562 288.936 410 245.484L410 100.607Z" fill="#ED6C00" fill-rule="evenodd" transform="matrix(1 0 0 1.00035 765.082 887.44)"/></g></g></g></g><g clip-path="url(#clip5)"><g clip-path="url(#clip6)"><g clip-path="url(#clip7)"><path d="M1673.27-42.6421 1654.27-42.6421 1654.27-18.5944 1673.27-18.5944 1673.27-42.6421ZM1590.23 139.206C1617.62 175.405 1665.82 167.138 1665.82 167.138 1671.67 115.893 1650.94 99.2845 1650.94 99.2845 1638.05 126.488 1657.53 159.326 1657.53 159.326 1628.24 132.284 1590.22 139.206 1590.22 139.206M1640.23-142.045 1631.02-150.654C1608.74-144.989 1592.55-125.237 1592.55-125.237 1603-150.262 1597.34-173.681 1592.66-186.119L1585.96-191.616C1566.63-154.968 1588.04-114.76 1588.04-114.76 1617.77-121.907 1632.84-133.641 1640.23-142.051M1702.44 192.363C1701.46 176.445 1698.57 164.848 1694.98 155.572L1676.66 155.597C1681.62 172.996 1692.89 186.113 1692.89 186.113 1659.32 164.536 1623.09 177.958 1623.09 177.958 1656.37 208.859 1702.44 192.356 1702.44 192.356M1697.93-79.3143 1697.93 129.42 1801.35 129.42C1813.03 129.732 1825.08 138.895 1825.08 138.895L1825.08-28.094C1762.43-29.4386 1749.81-79.3143 1749.81-79.3143L1697.93-79.3143ZM1746.88 47.5848 1739.11 47.5848 1739.11 87.9859 1729.31 87.9859 1729.31 47.5848 1721.63 47.5848 1721.63 38.3654 1746.88 38.3654 1746.88 47.5786ZM1795.66 88.7703C1792.89 88.7703 1789.47 87.9299 1787.22 86.2802L1787.22 76.9176C1789.55 78.5175 1791.77 79.582 1794.68 79.582 1797.82 79.582 1800.34 77.453 1800.34 74.1723 1800.34 70.3626 1797.29 68.9059 1794.54 66.9201 1788.88 63.1041 1785.4 59.4375 1785.4 52.2101 1785.4 44.3665 1789.95 37.5811 1798.35 37.5811 1801.51 37.5811 1804.35 38.4526 1807.04 40.0213L1807.04 49.5707C1805.04 47.865 1802.63 46.4083 1799.94 46.4083 1796.89 46.4083 1794.98 48.2572 1794.98 51.2826 1794.98 59.4375 1809.92 59.9106 1809.92 73.332 1809.92 82.1343 1804.88 88.7703 1795.66 88.7703M1802.94-22.0183 1812.75-22.0183 1812.75 27.6084 1802.95 27.6084 1802.95-22.0183ZM1772.09-22.0183 1781.99-22.0183C1788.24-22.0183 1799.38-21.3709 1799.38-7.81253 1799.38-2.34687 1797.23 2.3033 1792.38 4.99255L1800.98 27.5773 1790.64 27.5773 1782.04 4.68752 1781.9 4.68752 1781.9 27.5773 1772.1 27.5773 1772.1-22.0183ZM1782.43 87.9859 1771.98 87.9859 1770.13 79.638 1760.18 79.638 1758.39 87.9859 1748.67 87.9859 1760.18 38.3654 1770.49 38.3654 1782.43 87.9859ZM1770.1-22.012 1770.1-12.8238 1760.16-12.8238 1760.16-2.03562 1768.9-2.03562 1768.9 7.17757 1760.16 7.17757 1760.16 18.3828 1770.21 18.3828 1770.21 27.5773 1750.38 27.5773 1750.38-21.9622 1736.62 27.5773 1728.6 27.5773 1714.26-22.0183 1724.77-22.0183 1730.71 1.80529C1731.58 4.60659 1731.89 7.47015 1732.48 10.2715L1732.61 10.2715C1733.14 7.383 1733.34 4.58169 1734.12 1.66833L1740.12-22.012 1770.1-22.012ZM1937.99-187.165 1907-153.456 1907.32-99.5709C1907.32-99.5709 1906.36-90.6876 1904.45-86.2927L1924.37-86.2927 1981.31-143.228 1937.99-187.158ZM1673.89 70.9291 1654.89 70.9291 1654.89 94.9331 1673.89 94.9331 1673.89 70.9228ZM1704.87-162.196 1744.75-122.971 1744.75-153.312 1704.87-193.184 1704.87-162.196ZM1673.44 173.812C1675.93 173.812 1677.95 171.791 1677.95 169.298 1677.95 166.806 1675.93 164.785 1673.44 164.785 1670.96 164.806 1668.96 166.819 1668.96 169.298 1668.96 171.789 1670.97 173.812 1673.44 173.812M1601.26-147.342C1601.28-144.857 1603.3-142.851 1605.79-142.863 1608.27-142.876 1610.28-144.9 1610.27-147.386 1610.25-149.872 1608.23-151.877 1605.74-151.865 1603.26-151.853 1601.25-149.828 1601.26-147.342M1673.72 140.943C1673.87 142.991 1674.28 140.495 1674.28 140.495L1674.28 111.162 1669.43 116.541C1672.17 123.936 1673.13 134.556 1673.72 140.943M1744.75-107.95 1744.75-114.113 1715.33-143.533 1646.4-143.533 1685.32-107.95 1744.75-107.95ZM1595.18-191.672C1595.18-191.672 1592.6-207.726 1609.36-231.792L1552.76-231.792C1552.76-231.792 1555.17-225.213 1595.18-191.672M1546.12-103.356C1536.01-59.0827 1573.33-27.4528 1573.33-27.4528 1616.31-55.9203 1615.69-82.4829 1615.69-82.4829 1586.61-74.8882 1573.94-38.8261 1573.94-38.8261 1575.85-78.698 1546.12-103.356 1546.12-103.356M1579.46-82.8439C1588.23-121.763 1563.27-151.214 1563.27-151.214 1545.59-109.382 1576.85-71.7508 1576.85-71.7508 1624.15-92.3186 1628.16-118.564 1628.16-118.564 1598.18-116.161 1579.46-82.8439 1579.46-82.8439M1583.44-64.2931C1583.43-66.7828 1581.42-68.7995 1578.93-68.8063 1576.44-68.8029 1574.42-66.7822 1574.43-64.2931 1574.43-61.8039 1576.45-59.7889 1578.94-59.7923 1581.42-59.7958 1583.44-61.8088 1583.44-64.2931M1814.04 163.92 1843.71 163.92C1843.71 163.92 1845.67 151.034 1854.05 151.034L1977.28 151.034 1977.28-65.7871 1965.04-78.6731 1965.04 136.181 1854.69 136.181C1854.69 136.181 1839.84 137.469 1828.21 151.644 1828.21 151.644 1819.19 138.111 1799.86 136.828L1692.1 136.828 1692.1-76.7371 1678.87-63.5149 1678.87 151.028 1799.19 151.028C1799.19 151.028 1814.04 151.65 1814.04 163.914M1620.94-234.482C1590.03-201.227 1606.53-155.161 1606.53-155.161 1658.03-158.299 1670.75-181.618 1670.75-181.618 1641.75-189.599 1612.77-164.717 1612.77-164.717 1634.35-198.283 1620.93-234.482 1620.93-234.482M1766.18 58.6531 1765.06 51.1394 1764.93 51.1394 1763.86 58.6531 1761.76 71.8504 1768.68 71.8504 1766.19 58.6531ZM2050.89 151.955C2059.05 146.919 2066.06 140.216 2071.45 132.284 2071.45 132.284 2055.14 130.155 2036.06 136.598L2050.88 151.955ZM2082.24-44.796C2082.24-44.796 2068.76-80.5469 2039.48-87.4692 2039.48-87.4692 2039.46-60.8755 2083.13-33.4165 2083.13-33.4165 2119.7-65.9241 2108.55-109.967 2108.55-109.967 2079.41-84.5808 2082.24-44.7898M2027.4 61.9026C2027.4 61.9026 2010.31 82.2712 2026.12 131.363 2026.12 131.363 2075.01 129.962 2094.76 89.0815 2094.76 89.0815 2056.15 89.7787 2032.73 122.087 2032.73 122.087 2045.36 86.025 2027.4 61.9026M2081.07-0.473109C2081.07-0.473109 2073.97-38.0417 2046.34-49.8944 2046.34-49.8944 2041.72-23.7239 2079.97 10.8815 2079.97 10.8815 2121.63-14.7598 2118.27-60.0662 2118.27-60.0662 2085.18-40.1458 2081.06-0.466884M2046.6-11.7344C2046.6-11.7344 2037.52 13.2595 2069.15 54.003 2069.15 54.003 2114.62 35.9812 2119.19-9.24431 2119.19-9.24431 2083.13 4.63149 2072.23 42.9845 2072.23 42.9845 2071.73 4.76844 2046.6-11.7344M2075.54 21.8315C2078.03 21.8315 2080.05 19.7897 2080.05 17.2934 2080.04 14.8101 2078.02 12.8044 2075.54 12.8113 2073.05 12.8113 2071.03 14.8282 2071.03 17.2934 2071.03 19.7834 2073.05 21.8377 2075.54 21.8377M2049.17 98.9421C2049.19 96.4668 2047.2 94.4462 2044.72 94.429 2044.71 94.4289 2044.7 94.4289 2044.69 94.4289 2042.2 94.4289 2040.18 96.4495 2040.18 98.9421 2040.18 101.435 2042.2 103.455 2044.69 103.455 2047.18 103.455 2049.17 101.438 2049.17 98.9421M1668.2-169.566 1668.22-169.566C1666.43-168.134 1653.9-156.705 1634.82-154.377L1641.32-148.27 1709.64-148.581 1688.43-169.759 1688.4-169.759 1677.7-180.529C1677.7-180.529 1670.08-170.83 1668.2-169.572M1932.28 51.4506 1932.14 51.4506 1931.11 58.9581 1929.01 72.1865 1935.9 72.1865 1933.38 58.9581 1932.28 51.4506ZM1789.86-7.75028C1789.86-11.3111 1788.15-14.1995 1783.22-13.9443L1781.9-13.9443 1781.9-0.722114 1783.64-0.634963C1788.09-0.634963 1789.86-3.66037 1789.86-7.7565M1832.03-29.3577 1832.03 138.901C1832.03 138.901 1841.53 129.427 1854.81 129.427L1959.18 129.427 1959.18-79.3081 1902.89-79.3081C1902.89-79.3081 1886.89-30.0798 1832.03-29.3515M1844.6-21.7008 1854.41-21.7008 1854.41 18.7003 1864.67 18.7003 1864.67 27.8886 1844.61 27.8886 1844.61-21.707ZM1876.41 88.3283 1874.05 52.5774 1873.9 52.5774 1872.33 64.8222 1868.13 88.3283 1860.57 88.3283 1855.77 64.567 1854.12 53.5049 1854.12 52.5774 1853.99 52.5774 1852.52 88.3283 1842.02 88.3283 1846.36 38.7078 1859.25 38.7078 1864.07 67.9908 1864.18 67.9908 1868.13 38.7078 1881.3 38.7078 1886.49 88.3283 1876.43 88.3283ZM1939.17 88.3283 1937.35 79.9493 1927.4 79.9493 1925.64 88.3283 1915.91 88.3283 1927.4 38.7078 1937.74 38.7078 1949.65 88.3283 1939.17 88.3283ZM1909.33-21.7008 1920.37-21.7008 1923.2-14.7784C1924.04-12.3444 1925.05-9.79834 1925.56-7.24604L1925.69-7.24604C1926.22-9.79834 1927.04-12.2884 1927.93-14.7784L1930.9-21.7008 1941.49-21.7008 1930.91 2.3033 1942.28 27.8886 1930.91 27.8886 1927.77 20.0138C1926.84 17.4926 1926.23 15.0835 1925.56 12.5872L1925.44 12.5872C1924.71 15.0772 1924.13 17.4926 1923.29 20.0138L1920.38 27.8886 1909.33 27.8886 1919.84 2.3033 1909.33-21.707ZM1911.99 38.7078 1911.99 47.921 1902.05 47.921 1902.05 58.6905 1910.81 58.6905 1910.81 67.9348 1902.05 67.9348 1902.05 79.1089 1912.13 79.1089 1912.13 88.3283 1892.27 88.3283 1892.27 38.7016 1911.99 38.7016ZM1886.78 19.7959C1891.57 19.7959 1891.57 16.1853 1891.62 12.5125L1891.62-21.7008 1901.43-21.7008 1901.43 14.4672C1901.43 19.7399 1900.84 28.6791 1886.69 28.6791 1877.56 28.6791 1872.09 24.4212 1872.09 15.1457L1872.09-21.707 1881.9-21.707 1881.9 10.4146C1881.9 14.1622 1881.43 19.7959 1886.78 19.7959M1698.71-198.706C1698.71-198.706 1694.28-192.232 1677.36-188.59L1698.71-168.838 1698.71-198.706ZM1752.92-112.351C1752.92-59.8421 1785.85-35.6077 1826.42-35.6077 1867.07-35.6077 1900.03-59.7612 1900.03-112.351L1900.03-262.028 1752.95-262.028C1752.95-262.028 1752.93-164.804 1752.93-112.351M1788.37-218.402 1788.37-240.539 1857.33-240.539 1857.33-208.903 1880.07-208.903 1880.07-186.15 1857.98-186.15 1857.98-176.003 1880.07-176.003 1880.07-151.351 1857.98-151.351 1857.98-77.3223 1838.97-77.3223 1812.72-103.605 1788.71-79.5695 1771.31-96.9376 1811.15-136.81 1831.72-116.242 1831.72-218.396 1788.37-218.396ZM1690.08-102.403 1707.64-86.9339 1747.27-86.9339C1745.36-90.0713 1745.98-102.092 1745.98-102.092L1690.08-102.403ZM2008.8 95.4934C2008.8 95.4934 2005.6 98.855 2004.54 103.96L2014.06 113.851C2013.53 107.688 2011.97 101.407 2008.8 95.4996M1634.18 135.957C1648.84 86.5043 1631.27 66.5839 1631.27 66.5839 1613.87 91.0673 1627.35 126.824 1627.35 126.824 1603.19 95.0763 1564.55 95.3004 1564.55 95.3004 1585.26 135.733 1634.18 135.95 1634.18 135.95M1631.74-191.752C1682.99-185.901 1699.55-206.662 1699.55-206.662 1672.43-219.548 1639.54-200.075 1639.54-200.075 1666.63-229.383 1659.71-267.382 1659.71-267.382 1623.47-239.979 1631.74-191.752 1631.74-191.752M1739 170.699C1741.44 200.704 1774.73 219.398 1774.73 219.398 1735.83 210.627 1706.36 235.621 1706.36 235.621 1748.22 253.269 1785.85 222.031 1785.85 222.031 1765.28 174.708 1739 170.699 1739 170.699M1608.44 99.7327C1631.44 53.6045 1617.62 30.914 1617.62 30.914 1596.19 52.0109 1603.28 89.5858 1603.28 89.5858 1584.98 54.115 1546.91 47.6097 1546.91 47.6097 1560.3 91.0113 1608.44 99.7265 1608.44 99.7265M1711.82 155.709 1705.43 155.653C1705.07 184.008 1732.36 206.338 1732.36 206.338 1695.54 190.931 1662.21 210.428 1662.21 210.428 1700.37 235.086 1742.84 210.82 1742.84 210.82 1734.57 176.358 1720.06 161.592 1711.82 155.709M1616.87 177.117C1616.87 177.117 1623.87 172.946 1634.07 171.427L1622.78 168.738 1621.69 170.17C1622.3 169.274 1622.78 168.738 1622.78 168.738L1572.68 221.44C1572.68 221.44 1566.99 229.682 1572.37 235.061 1572.37 235.061 1577.42 239.175 1584.39 234.438L1633.17 191.771C1628.24 189.219 1617.46 180.255 1616.86 177.117M1589.35 59.6056C1620.04 18.1338 1610.34-6.60486 1610.34-6.60486 1585.6 10.4893 1586.04 48.7054 1586.04 48.7054 1574.2 10.6014 1537.82-2.4278 1537.82-2.4278 1543.46 42.6794 1589.36 59.6056 1589.36 59.6056M1615.07-237.146 1555.76-296.465C1555.76-296.465 1530.96-278.668 1550.24-237.146L1615.07-237.146ZM1641.89-258.722 1607-293.938C1585.4-315.514 1559.79-301.284 1559.79-301.284L1628.49-232.888C1633.09-250.424 1641.89-258.722 1641.89-258.722M1577.65 23.0392C1577.65 25.5292 1579.66 27.5524 1582.15 27.5524 1584.64 27.5524 1586.63 25.5355 1586.63 23.0392 1586.65 20.5639 1584.66 18.5433 1582.18 18.5261 1582.17 18.526 1582.16 18.526 1582.15 18.526 1579.66 18.526 1577.64 20.5429 1577.64 23.0392M1577.53 16.7892C1614.93-18.7376 1609.69-44.7649 1609.69-44.7649 1582.35-32.2399 1576.16 5.47188 1576.16 5.47188 1571.12-34.1199 1537.54-53.2559 1537.54-53.2559 1535.28-7.86856 1577.53 16.7892 1577.53 16.7892M1610.36 104.128C1610.36 106.619 1612.38 108.638 1614.87 108.638 1617.37 108.638 1619.38 106.619 1619.38 104.128 1619.38 101.637 1617.37 99.6175 1614.87 99.6175 1612.38 99.6175 1610.36 101.637 1610.36 104.128M1987.61 169.915C1990.1 169.916 1992.12 167.9 1992.12 165.411 1992.13 162.922 1990.11 160.902 1987.62 160.901 1985.13 160.901 1983.11 162.919 1983.11 165.408 1983.11 167.897 1985.13 169.915 1987.62 169.915M2011.57 164.063 1995.71 151.14C1996.05 155.18 1996.58 159.438 1997.31 164.001 1997.31 164.001 2003.03 164.673 2011.57 164.063M2055.93 84.257C2055.93 84.257 2062.12 46.5453 2040.21 25.9525 2040.21 25.9525 2026.93 48.9544 2051.02 94.541 2051.02 94.541 2098.94 84.7053 2111.29 41.0049 2111.29 41.0049 2073.35 48.3941 2055.93 84.2633M1755.25 210.092C1755.25 207.603 1753.24 205.585 1750.75 205.585 1748.26 205.585 1746.24 207.603 1746.24 210.092 1746.24 212.581 1748.26 214.599 1750.75 214.599 1753.24 214.599 1755.25 212.581 1755.25 210.092M1968.62 182.888C1968.62 182.888 1978.39 171.178 1983.19 154.701L1964.87 154.42C1961.95 163.416 1959.76 174.845 1959.23 189.362 1959.23 189.362 1998.82 202.497 2030.54 179.551L2018.33 169.716C2004.8 168.962 1986.21 170.979 1968.62 182.888M1981.95 109.811 1981.95 133.853 2089.49 223.04 2110.98 223.04 2001.55 109.811 1981.95 109.811ZM1824.43 213.54 1824.43 224.777C1819.25 216.622 1798.99 186.978 1776.1 185.521 1776.1 185.521 1783.89 212.003 1818.16 227.578 1818.16 227.578 1775.14 230.411 1757.61 253.941 1757.61 253.941 1795.1 257.334 1824.43 228.169L1824.43 246.465 1835.84 246.465 1835.84 213.54 1824.43 213.54ZM1843.43 227.466C1877.58 211.667 1885.18 185.104 1885.18 185.104 1858.62 186.978 1835.84 226.85 1835.84 226.85 1865.56 257.197 1904.15 253.412 1904.15 253.412 1886.44 229.987 1843.43 227.466 1843.43 227.466M1887.56 218.079C1887.56 218.079 1920.43 198.581 1922.14 168.57 1922.14 168.57 1895.97 173.195 1876.52 220.967 1876.52 220.967 1914.85 251.308 1956.29 232.708 1956.29 232.708 1926.25 208.386 1887.56 218.079M1929.61 204.01C1929.61 204.01 1955.14 182.104 1955.37 154.732L1946.26 155.093C1938.02 162.32 1925.95 177.677 1919.25 208.778 1919.25 208.778 1962.31 232.004 1999.83 206.475 1999.83 206.475 1966.04 187.762 1929.61 204.016M1907 208.355C1907 210.846 1909.02 212.866 1911.51 212.868 1914 212.87 1916.02 210.852 1916.02 208.361 1916.02 205.87 1914.01 203.851 1911.51 203.851 1909.02 203.851 1907 205.87 1907 208.361M2066.35-120.363C2066.35-120.363 2089.61-163.397 2064.05-200.978 2064.05-200.978 2045.36-167.182 2061.62-130.728 2061.62-130.728 2036.74-159.699 2006.87-156.201 2006.87-156.201 2015.94-131.207 2066.35-120.363M1956.96-220.979 1970.61-235.098C1958.98-237.794 1937.15-241.684 1919.5-228.518 1919.5-228.518 1928.58-218.234 1956.96-220.979M2047.75-147.99C2050.24-147.99 2052.26-150.008 2052.26-152.497 2052.26-154.986 2050.24-157.004 2047.75-157.004 2045.26-157.004 2043.24-154.986 2043.24-152.497 2043.24-150.008 2045.26-147.99 2047.75-147.99M2078.56-77.6335C2078.56-77.6335 2108.94-115.993 2090.28-157.433 2090.28-157.433 2065.99-127.366 2075.68-88.6458 2075.68-88.6458 2056.21-121.539 2026.17-123.251 2026.17-123.251 2030.8-97.0808 2078.57-77.6335M2012.92-293.633C2027.12-286.574 2038.58-293.969 2038.58-293.969 2054.42-301.732 2065.85-290.969 2065.85-290.969 2076.89-282.34 2075.1-270.992 2075.1-270.992 2075.1-262.277 2072.57-261.692 2072.57-261.692 2067.3-258.081 2068.62-264.182 2068.62-264.182 2068.78-264.269 2069.82-268.477 2069.82-268.477 2071.9-288.111 2054.27-290.944 2054.27-290.944 2035.55-294.218 2030.9-276.937 2030.9-276.937 2029.83-272.785 2029.57-268.463 2030.15-264.213L2006.78-287.582 2007.88-267.83 2060.07-215.657 2078.74-215.657 2059.79-234.594C2065.89-232.693 2072.19-231.527 2078.57-231.12 2105.21-232.745 2108.01-258.243 2108.01-258.243 2115.05-284.862 2089.81-306.382 2089.81-306.382 2072.97-320.837 2047.49-322.013 2047.49-322.013 2011.26-326.221 1998.41-349.36 1998.41-349.36 1994.17-338.827 1995.26-323.246 1995.26-323.246 1997.68-299.235 2012.92-293.633 2012.92-293.633M2072.15-70.2381C2072.15-67.7489 2074.17-65.7297 2076.65-65.728 2079.14-65.7262 2081.16-67.7427 2081.16-70.2318 2081.16-72.721 2079.15-74.7388 2076.66-74.7388 2074.17-74.7388 2072.15-72.721 2072.15-70.2318M1973.27-238.578 1984.31-249.752C1979.63-265.533 1970.13-284.55 1946.68-295.88 1946.68-295.88 1945.7-262.14 1973.27-238.578M2000.95 73.139 1981.95 73.139 1981.95 97.1804 2000.95 97.1804 2000.95 73.139ZM2015.7-165.028C2024.07-162.644 2034.35-160.851 2046.93-160.347 2046.93-160.347 2052.65-177.354 2050.18-198.034L2033.74-182.284C2035.5-178.113 2037.74-173.905 2040.55-169.759 2040.55-169.759 2036-173.488 2028.75-177.522L2015.7-165.028ZM1655.17-216.323C1655.17-213.834 1657.19-211.816 1659.68-211.816 1662.17-211.816 1664.19-213.834 1664.19-216.323 1664.19-218.812 1662.17-220.83 1659.68-220.83 1657.19-220.83 1655.17-218.812 1655.17-216.323M2052.15-210.895 2003.45-259.588 1959.79-212.183 2006.61-165.98 2052.14-210.895ZM1948.75-209.326 1938.95-197.61 1992.07-144.46 2002.83-155.217 1948.76-209.326ZM2000-44.547 1981-44.547 1981-20.5056 2000-20.5056 2000-44.5408ZM1772.63-274.049C1772.63-274.049 1787.56-264.182 1813.79-282.26 1813.79-282.26 1781.31-295.594 1772.63-274.042M1941.87-257.042C1941.87-257.042 1927.1-261.493 1908.46-255.162L1908.44-238.155C1919.78-238.379 1931.3-241.124 1952.15-252.136 1952.15-252.136 1942.29-300.051 1898.61-312.377 1898.61-312.377 1905.97-274.466 1941.87-257.035M1745.99-235.882 1746.35-252.416C1727.94-257.826 1709.34-254.296 1709.34-254.296 1744.78-272.592 1751.28-310.671 1751.28-310.671 1707.88-297.306 1699.14-249.167 1699.14-249.167 1719.17-239.194 1734.75-236.138 1745.99-235.882M1732.34-226.302C1707.83-243.732 1672.07-230.255 1672.07-230.255 1703.82-254.408 1703.59-293.042 1703.59-293.042 1663.16-272.312 1662.94-223.42 1662.94-223.42 1712.39-208.735 1732.34-226.302 1732.34-226.302M1729.54-262.588C1729.54-260.099 1731.55-258.08 1734.04-258.078 1736.53-258.076 1738.55-260.093 1738.55-262.582 1738.55-265.071 1736.53-267.089 1734.05-267.089 1731.56-267.089 1729.54-265.071 1729.54-262.582M1740.46-267.35 1774.48-267.83C1763.92-274.186 1752.35-273.961 1752.35-273.961 1790.43-285.814 1801.3-319.778 1801.3-319.778 1756.24-314.145 1739.29-268.247 1739.29-268.247L1740.46-267.35M1922.09-265.053C1922.1-267.529 1920.11-269.549 1917.64-269.566 1917.63-269.566 1917.62-269.567 1917.61-269.567 1915.11-269.567 1913.09-267.546 1913.09-265.053 1913.09-262.561 1915.11-260.54 1917.61-260.54 1920.1-260.54 1922.09-262.557 1922.09-265.053M1898.21-273.961C1898.21-273.961 1886.64-274.186 1876.08-267.83L1910.09-267.35C1910.68-267.799 1910.71-267.799 1911.27-268.247 1911.27-268.247 1894.34-314.145 1849.27-319.772 1849.27-319.772 1860.14-285.814 1898.21-273.961M1825.08-279.172C1828.42-279.179 1831.11-281.888 1831.11-285.223 1831.1-288.558 1828.39-291.256 1825.06-291.249 1821.72-291.242 1819.02-288.533 1819.03-285.198 1819.04-281.863 1821.75-279.165 1825.08-279.172M1877.9-276.034C1868.4-297.25 1836.46-282.677 1836.46-282.677 1863.35-265.614 1877.9-276.034 1877.9-276.034" fill="#003380" transform="matrix(1 0 0 1.00061 -1363.33 1344.18)"/></g></g></g><text font-family="Malgun Gothic,Malgun Gothic_MSFontService,sans-serif" font-weight="400" font-size="183" transform="matrix(1 0 0 1 1642.47 1198)">서울대학교<tspan font-size="183" x="923.656" y="0">사범대학</tspan><tspan font-size="183" x="1673.6" y="0">부설</tspan><tspan font-weight="700" font-size="303" x="0" y="337">SNU</tspan><tspan font-weight="700" font-size="303" x="604.771" y="337">융합과학배움터</tspan></text></g></svg>